<svg width="237" height="237" viewBox="0 0 237 237" fill="none" xmlns="http://www.w3.org/2000/svg">
<g clip-path="url(#clip0_149_124)">
<circle cx="118.5" cy="118.5" r="118.5" fill="white"/>
<path d="M39.4674 151.987C36.49 151.987 34.022 151.086 32.0633 149.284C30.1829 147.403 29.2426 145.092 29.2426 142.35C29.2426 139.607 30.1829 137.335 32.0633 135.533C34.022 133.653 36.49 132.712 39.4674 132.712C42.3663 132.712 44.756 133.653 46.6364 135.533C48.5168 137.335 49.457 139.607 49.457 142.35C49.457 145.092 48.5168 147.403 46.6364 149.284C44.756 151.086 42.3663 151.987 39.4674 151.987ZM150.031 86.0549L130.992 151.164H113.246L101.376 105.682L89.5056 151.164H71.6418L52.4851 86.0549H69.1737L80.6912 135.651L93.1489 86.0549H110.543L122.765 135.533L134.283 86.0549H150.031ZM180.911 152.222C175.583 152.222 170.804 151.281 166.573 149.401C162.342 147.442 158.973 144.818 156.466 141.527C154.037 138.236 152.705 134.593 152.47 130.597H169.041C169.354 133.104 170.569 135.18 172.684 136.826C174.878 138.471 177.581 139.294 180.793 139.294C183.927 139.294 186.356 138.667 188.08 137.413C189.882 136.16 190.783 134.554 190.783 132.595C190.783 130.479 189.686 128.912 187.492 127.894C185.377 126.797 181.969 125.622 177.268 124.368C172.41 123.193 168.414 121.978 165.28 120.725C162.224 119.471 159.561 117.552 157.288 114.966C155.095 112.381 153.998 108.894 153.998 104.506C153.998 100.902 155.016 97.6116 157.053 94.6342C159.169 91.6569 162.146 89.3064 165.985 87.5827C169.903 85.859 174.486 84.9972 179.736 84.9972C187.492 84.9972 193.682 86.9559 198.305 90.8734C202.927 94.7126 205.474 99.9229 205.944 106.504H190.195C189.96 103.919 188.864 101.882 186.905 100.393C185.024 98.826 182.478 98.0425 179.266 98.0425C176.288 98.0425 173.977 98.5909 172.332 99.6878C170.765 100.785 169.981 102.313 169.981 104.271C169.981 106.465 171.078 108.15 173.272 109.325C175.466 110.422 178.874 111.558 183.497 112.733C188.198 113.908 192.076 115.123 195.132 116.376C198.187 117.63 200.812 119.589 203.006 122.253C205.278 124.838 206.453 128.286 206.531 132.595C206.531 136.356 205.474 139.725 203.358 142.702C201.321 145.679 198.344 148.03 194.426 149.754C190.587 151.399 186.082 152.222 180.911 152.222Z" fill="black"/>
</g>
<defs>
<clipPath id="clip0_149_124">
<rect width="237" height="237" fill="white"/>
</clipPath>
</defs>
</svg>
